<mxfile host="app.diagrams.net" modified="2024-04-26T04:51:30.326Z" agent="Mozilla/5.0 (Windows NT 10.0; Win64; x64) AppleWebKit/537.36 (KHTML, like Gecko) Chrome/124.0.0.0 Safari/537.36" version="24.3.0" etag="Bg64x-Zz8g8n6KNM9RK_" type="github">
  <diagram name="Page-1" id="PQI8Dd8WqUlguzMOhsSE">
    <mxGraphModel>
      <root>
        <mxCell id="0" />
        <mxCell id="1" parent="0" />
      </root>
    </mxGraphModel>
  </diagram>
</mxfile>
